<?xml version="1.0" encoding="UTF-8" standalone="no"?>
<!DOCTYPE svg PUBLIC "-//W3C//DTD SVG 1.1//EN"
 "http://www.w3.org/Graphics/SVG/1.1/DTD/svg11.dtd">
<!-- Generated by graphviz version 4.0.0 (20220529.1859)
 -->
<!-- Title: Tree Pages: 1 -->
<svg width="2030pt" height="373pt"
 viewBox="0.00 0.00 2030.00 373.00" xmlns="http://www.w3.org/2000/svg" xmlns:xlink="http://www.w3.org/1999/xlink">
<g id="graph0" class="graph" transform="scale(1 1) rotate(0) translate(4 369)">
<title>Tree</title>
<polygon fill="white" stroke="transparent" points="-4,4 -4,-369 2026,-369 2026,4 -4,4"/>
<!-- 0 -->
<g id="node1" class="node">
<title>0</title>
<polygon fill="none" stroke="black" points="1131.5,-365 885.5,-365 885.5,-297 1131.5,-297 1131.5,-365"/>
<text text-anchor="middle" x="1008.5" y="-349.8" font-family="Helvetica,sans-Serif" font-size="14.00">smoker_no &lt;= 0.5</text>
<text text-anchor="middle" x="1008.5" y="-334.8" font-family="Helvetica,sans-Serif" font-size="14.00">squared_error = 146542766.494</text>
<text text-anchor="middle" x="1008.5" y="-319.8" font-family="Helvetica,sans-Serif" font-size="14.00">samples = 1338</text>
<text text-anchor="middle" x="1008.5" y="-304.8" font-family="Helvetica,sans-Serif" font-size="14.00">value = 13270.422</text>
</g>
<!-- 1 -->
<g id="node2" class="node">
<title>1</title>
<polygon fill="none" stroke="black" points="876.5,-261 630.5,-261 630.5,-193 876.5,-193 876.5,-261"/>
<text text-anchor="middle" x="753.5" y="-245.8" font-family="Helvetica,sans-Serif" font-size="14.00">bmi &lt;= 30.01</text>
<text text-anchor="middle" x="753.5" y="-230.8" font-family="Helvetica,sans-Serif" font-size="14.00">squared_error = 132721153.136</text>
<text text-anchor="middle" x="753.5" y="-215.8" font-family="Helvetica,sans-Serif" font-size="14.00">samples = 274</text>
<text text-anchor="middle" x="753.5" y="-200.8" font-family="Helvetica,sans-Serif" font-size="14.00">value = 32050.232</text>
</g>
<!-- 0&#45;&gt;1 -->
<g id="edge1" class="edge">
<title>0&#45;&gt;1</title>
<path fill="none" stroke="black" d="M925.71,-296.88C900.19,-286.68 871.94,-275.38 845.83,-264.93"/>
<polygon fill="black" stroke="black" points="846.9,-261.59 836.31,-261.12 844.3,-268.09 846.9,-261.59"/>
<text text-anchor="middle" x="846.16" y="-280.4" font-family="Helvetica,sans-Serif" font-size="14.00">True</text>
</g>
<!-- 8 -->
<g id="node9" class="node">
<title>8</title>
<polygon fill="none" stroke="black" points="1384,-261 1147,-261 1147,-193 1384,-193 1384,-261"/>
<text text-anchor="middle" x="1265.5" y="-245.8" font-family="Helvetica,sans-Serif" font-size="14.00">age &lt;= 42.5</text>
<text text-anchor="middle" x="1265.5" y="-230.8" font-family="Helvetica,sans-Serif" font-size="14.00">squared_error = 35891656.003</text>
<text text-anchor="middle" x="1265.5" y="-215.8" font-family="Helvetica,sans-Serif" font-size="14.00">samples = 1064</text>
<text text-anchor="middle" x="1265.5" y="-200.8" font-family="Helvetica,sans-Serif" font-size="14.00">value = 8434.268</text>
</g>
<!-- 0&#45;&gt;8 -->
<g id="edge8" class="edge">
<title>0&#45;&gt;8</title>
<path fill="none" stroke="black" d="M1091.94,-296.88C1117.66,-286.68 1146.13,-275.38 1172.45,-264.93"/>
<polygon fill="black" stroke="black" points="1174.04,-268.07 1182.04,-261.12 1171.45,-261.56 1174.04,-268.07"/>
<text text-anchor="middle" x="1172.13" y="-280.38" font-family="Helvetica,sans-Serif" font-size="14.00">False</text>
</g>
<!-- 2 -->
<g id="node3" class="node">
<title>2</title>
<polygon fill="none" stroke="black" points="492,-157 255,-157 255,-89 492,-89 492,-157"/>
<text text-anchor="middle" x="373.5" y="-141.8" font-family="Helvetica,sans-Serif" font-size="14.00">age &lt;= 41.0</text>
<text text-anchor="middle" x="373.5" y="-126.8" font-family="Helvetica,sans-Serif" font-size="14.00">squared_error = 25281960.654</text>
<text text-anchor="middle" x="373.5" y="-111.8" font-family="Helvetica,sans-Serif" font-size="14.00">samples = 130</text>
<text text-anchor="middle" x="373.5" y="-96.8" font-family="Helvetica,sans-Serif" font-size="14.00">value = 21369.223</text>
</g>
<!-- 1&#45;&gt;2 -->
<g id="edge2" class="edge">
<title>1&#45;&gt;2</title>
<path fill="none" stroke="black" d="M630.39,-192.95C589.35,-181.94 543.53,-169.64 502.09,-158.52"/>
<polygon fill="black" stroke="black" points="502.77,-155.08 492.21,-155.86 500.96,-161.84 502.77,-155.08"/>
</g>
<!-- 5 -->
<g id="node6" class="node">
<title>5</title>
<polygon fill="none" stroke="black" points="872,-157 635,-157 635,-89 872,-89 872,-157"/>
<text text-anchor="middle" x="753.5" y="-141.8" font-family="Helvetica,sans-Serif" font-size="14.00">age &lt;= 41.5</text>
<text text-anchor="middle" x="753.5" y="-126.8" font-family="Helvetica,sans-Serif" font-size="14.00">squared_error = 33743125.229</text>
<text text-anchor="middle" x="753.5" y="-111.8" font-family="Helvetica,sans-Serif" font-size="14.00">samples = 144</text>
<text text-anchor="middle" x="753.5" y="-96.8" font-family="Helvetica,sans-Serif" font-size="14.00">value = 41692.809</text>
</g>
<!-- 1&#45;&gt;5 -->
<g id="edge5" class="edge">
<title>1&#45;&gt;5</title>
<path fill="none" stroke="black" d="M753.5,-192.88C753.5,-184.78 753.5,-175.98 753.5,-167.47"/>
<polygon fill="black" stroke="black" points="757,-167.3 753.5,-157.3 750,-167.3 757,-167.3"/>
</g>
<!-- 3 -->
<g id="node4" class="node">
<title>3</title>
<polygon fill="none" stroke="black" points="237,-53 0,-53 0,0 237,0 237,-53"/>
<text text-anchor="middle" x="118.5" y="-37.8" font-family="Helvetica,sans-Serif" font-size="14.00">squared_error = 12049437.126</text>
<text text-anchor="middle" x="118.5" y="-22.8" font-family="Helvetica,sans-Serif" font-size="14.00">samples = 73</text>
<text text-anchor="middle" x="118.5" y="-7.8" font-family="Helvetica,sans-Serif" font-size="14.00">value = 18474.022</text>
</g>
<!-- 2&#45;&gt;3 -->
<g id="edge3" class="edge">
<title>2&#45;&gt;3</title>
<path fill="none" stroke="black" d="M284.31,-88.95C255.92,-78.43 224.73,-66.87 197.14,-56.64"/>
<polygon fill="black" stroke="black" points="198.14,-53.28 187.54,-53.09 195.7,-59.84 198.14,-53.28"/>
</g>
<!-- 4 -->
<g id="node5" class="node">
<title>4</title>
<polygon fill="none" stroke="black" points="492,-53 255,-53 255,0 492,0 492,-53"/>
<text text-anchor="middle" x="373.5" y="-37.8" font-family="Helvetica,sans-Serif" font-size="14.00">squared_error = 17745345.573</text>
<text text-anchor="middle" x="373.5" y="-22.8" font-family="Helvetica,sans-Serif" font-size="14.00">samples = 57</text>
<text text-anchor="middle" x="373.5" y="-7.8" font-family="Helvetica,sans-Serif" font-size="14.00">value = 25077.113</text>
</g>
<!-- 2&#45;&gt;4 -->
<g id="edge4" class="edge">
<title>2&#45;&gt;4</title>
<path fill="none" stroke="black" d="M373.5,-88.95C373.5,-80.72 373.5,-71.85 373.5,-63.48"/>
<polygon fill="black" stroke="black" points="377,-63.24 373.5,-53.24 370,-63.24 377,-63.24"/>
</g>
<!-- 6 -->
<g id="node7" class="node">
<title>6</title>
<polygon fill="none" stroke="black" points="747,-53 510,-53 510,0 747,0 747,-53"/>
<text text-anchor="middle" x="628.5" y="-37.8" font-family="Helvetica,sans-Serif" font-size="14.00">squared_error = 19630324.142</text>
<text text-anchor="middle" x="628.5" y="-22.8" font-family="Helvetica,sans-Serif" font-size="14.00">samples = 78</text>
<text text-anchor="middle" x="628.5" y="-7.8" font-family="Helvetica,sans-Serif" font-size="14.00">value = 38354.292</text>
</g>
<!-- 5&#45;&gt;6 -->
<g id="edge6" class="edge">
<title>5&#45;&gt;6</title>
<path fill="none" stroke="black" d="M709.78,-88.95C697.08,-79.34 683.23,-68.87 670.62,-59.34"/>
<polygon fill="black" stroke="black" points="672.63,-56.48 662.54,-53.24 668.41,-62.06 672.63,-56.48"/>
</g>
<!-- 7 -->
<g id="node8" class="node">
<title>7</title>
<polygon fill="none" stroke="black" points="1002,-53 765,-53 765,0 1002,0 1002,-53"/>
<text text-anchor="middle" x="883.5" y="-37.8" font-family="Helvetica,sans-Serif" font-size="14.00">squared_error = 21682580.293</text>
<text text-anchor="middle" x="883.5" y="-22.8" font-family="Helvetica,sans-Serif" font-size="14.00">samples = 66</text>
<text text-anchor="middle" x="883.5" y="-7.8" font-family="Helvetica,sans-Serif" font-size="14.00">value = 45638.329</text>
</g>
<!-- 5&#45;&gt;7 -->
<g id="edge7" class="edge">
<title>5&#45;&gt;7</title>
<path fill="none" stroke="black" d="M798.97,-88.95C812.18,-79.34 826.58,-68.87 839.69,-59.34"/>
<polygon fill="black" stroke="black" points="842.06,-61.95 848.1,-53.24 837.95,-56.29 842.06,-61.95"/>
</g>
<!-- 9 -->
<g id="node10" class="node">
<title>9</title>
<polygon fill="none" stroke="black" points="1384,-157 1147,-157 1147,-89 1384,-89 1384,-157"/>
<text text-anchor="middle" x="1265.5" y="-141.8" font-family="Helvetica,sans-Serif" font-size="14.00">children &lt;= 0.5</text>
<text text-anchor="middle" x="1265.5" y="-126.8" font-family="Helvetica,sans-Serif" font-size="14.00">squared_error = 22145208.607</text>
<text text-anchor="middle" x="1265.5" y="-111.8" font-family="Helvetica,sans-Serif" font-size="14.00">samples = 596</text>
<text text-anchor="middle" x="1265.5" y="-96.8" font-family="Helvetica,sans-Serif" font-size="14.00">value = 5398.85</text>
</g>
<!-- 8&#45;&gt;9 -->
<g id="edge9" class="edge">
<title>8&#45;&gt;9</title>
<path fill="none" stroke="black" d="M1265.5,-192.88C1265.5,-184.78 1265.5,-175.98 1265.5,-167.47"/>
<polygon fill="black" stroke="black" points="1269,-167.3 1265.5,-157.3 1262,-167.3 1269,-167.3"/>
</g>
<!-- 12 -->
<g id="node13" class="node">
<title>12</title>
<polygon fill="none" stroke="black" points="1767,-157 1530,-157 1530,-89 1767,-89 1767,-157"/>
<text text-anchor="middle" x="1648.5" y="-141.8" font-family="Helvetica,sans-Serif" font-size="14.00">age &lt;= 51.5</text>
<text text-anchor="middle" x="1648.5" y="-126.8" font-family="Helvetica,sans-Serif" font-size="14.00">squared_error = 26721037.099</text>
<text text-anchor="middle" x="1648.5" y="-111.8" font-family="Helvetica,sans-Serif" font-size="14.00">samples = 468</text>
<text text-anchor="middle" x="1648.5" y="-96.8" font-family="Helvetica,sans-Serif" font-size="14.00">value = 12299.887</text>
</g>
<!-- 8&#45;&gt;12 -->
<g id="edge12" class="edge">
<title>8&#45;&gt;12</title>
<path fill="none" stroke="black" d="M1384.06,-194.43C1427.16,-182.95 1476.05,-169.93 1519.97,-158.23"/>
<polygon fill="black" stroke="black" points="1521.08,-161.56 1529.84,-155.6 1519.28,-154.79 1521.08,-161.56"/>
</g>
<!-- 10 -->
<g id="node11" class="node">
<title>10</title>
<polygon fill="none" stroke="black" points="1257,-53 1020,-53 1020,0 1257,0 1257,-53"/>
<text text-anchor="middle" x="1138.5" y="-37.8" font-family="Helvetica,sans-Serif" font-size="14.00">squared_error = 16936983.559</text>
<text text-anchor="middle" x="1138.5" y="-22.8" font-family="Helvetica,sans-Serif" font-size="14.00">samples = 253</text>
<text text-anchor="middle" x="1138.5" y="-7.8" font-family="Helvetica,sans-Serif" font-size="14.00">value = 3850.841</text>
</g>
<!-- 9&#45;&gt;10 -->
<g id="edge10" class="edge">
<title>9&#45;&gt;10</title>
<path fill="none" stroke="black" d="M1221.08,-88.95C1208.17,-79.34 1194.1,-68.87 1181.3,-59.34"/>
<polygon fill="black" stroke="black" points="1183.2,-56.4 1173.09,-53.24 1179.02,-62.01 1183.2,-56.4"/>
</g>
<!-- 11 -->
<g id="node12" class="node">
<title>11</title>
<polygon fill="none" stroke="black" points="1512,-53 1275,-53 1275,0 1512,0 1512,-53"/>
<text text-anchor="middle" x="1393.5" y="-37.8" font-family="Helvetica,sans-Serif" font-size="14.00">squared_error = 22915523.402</text>
<text text-anchor="middle" x="1393.5" y="-22.8" font-family="Helvetica,sans-Serif" font-size="14.00">samples = 343</text>
<text text-anchor="middle" x="1393.5" y="-7.8" font-family="Helvetica,sans-Serif" font-size="14.00">value = 6540.675</text>
</g>
<!-- 9&#45;&gt;11 -->
<g id="edge11" class="edge">
<title>9&#45;&gt;11</title>
<path fill="none" stroke="black" d="M1310.27,-88.95C1323.28,-79.34 1337.46,-68.87 1350.37,-59.34"/>
<polygon fill="black" stroke="black" points="1352.67,-61.99 1358.64,-53.24 1348.52,-56.36 1352.67,-61.99"/>
</g>
<!-- 13 -->
<g id="node14" class="node">
<title>13</title>
<polygon fill="none" stroke="black" points="1767,-53 1530,-53 1530,0 1767,0 1767,-53"/>
<text text-anchor="middle" x="1648.5" y="-37.8" font-family="Helvetica,sans-Serif" font-size="14.00">squared_error = 20456563.503</text>
<text text-anchor="middle" x="1648.5" y="-22.8" font-family="Helvetica,sans-Serif" font-size="14.00">samples = 199</text>
<text text-anchor="middle" x="1648.5" y="-7.8" font-family="Helvetica,sans-Serif" font-size="14.00">value = 10193.097</text>
</g>
<!-- 12&#45;&gt;13 -->
<g id="edge13" class="edge">
<title>12&#45;&gt;13</title>
<path fill="none" stroke="black" d="M1648.5,-88.95C1648.5,-80.72 1648.5,-71.85 1648.5,-63.48"/>
<polygon fill="black" stroke="black" points="1652,-63.24 1648.5,-53.24 1645,-63.24 1652,-63.24"/>
</g>
<!-- 14 -->
<g id="node15" class="node">
<title>14</title>
<polygon fill="none" stroke="black" points="2022,-53 1785,-53 1785,0 2022,0 2022,-53"/>
<text text-anchor="middle" x="1903.5" y="-37.8" font-family="Helvetica,sans-Serif" font-size="14.00">squared_error = 25642708.343</text>
<text text-anchor="middle" x="1903.5" y="-22.8" font-family="Helvetica,sans-Serif" font-size="14.00">samples = 269</text>
<text text-anchor="middle" x="1903.5" y="-7.8" font-family="Helvetica,sans-Serif" font-size="14.00">value = 13858.442</text>
</g>
<!-- 12&#45;&gt;14 -->
<g id="edge14" class="edge">
<title>12&#45;&gt;14</title>
<path fill="none" stroke="black" d="M1737.69,-88.95C1766.08,-78.43 1797.27,-66.87 1824.86,-56.64"/>
<polygon fill="black" stroke="black" points="1826.3,-59.84 1834.46,-53.09 1823.86,-53.28 1826.3,-59.84"/>
</g>
</g>
</svg>
