<?xml version="1.0" encoding="UTF-8" standalone="no"?>
<!DOCTYPE svg PUBLIC "-//W3C//DTD SVG 1.1//EN"
 "http://www.w3.org/Graphics/SVG/1.1/DTD/svg11.dtd">
<!-- Generated by graphviz version 4.0.0 (20220529.1859)
 -->
<!-- Title: Tree Pages: 1 -->
<svg width="758pt" height="269pt"
 viewBox="0.00 0.00 758.00 269.00" xmlns="http://www.w3.org/2000/svg" xmlns:xlink="http://www.w3.org/1999/xlink">
<g id="graph0" class="graph" transform="scale(1 1) rotate(0) translate(4 265)">
<title>Tree</title>
<polygon fill="white" stroke="transparent" points="-4,4 -4,-265 754,-265 754,4 -4,4"/>
<!-- 0 -->
<g id="node1" class="node">
<title>0</title>
<path fill="#f6d4bb" stroke="black" d="M454.5,-261C454.5,-261 295.5,-261 295.5,-261 289.5,-261 283.5,-255 283.5,-249 283.5,-249 283.5,-205 283.5,-205 283.5,-199 289.5,-193 295.5,-193 295.5,-193 454.5,-193 454.5,-193 460.5,-193 466.5,-199 466.5,-205 466.5,-205 466.5,-249 466.5,-249 466.5,-255 460.5,-261 454.5,-261"/>
<text text-anchor="start" x="324.5" y="-245.8" font-family="Helvetica,sans-Serif" font-size="14.00">Exercise ≤ 0.5</text>
<text text-anchor="start" x="291.5" y="-230.8" font-family="Helvetica,sans-Serif" font-size="14.00">squared_error = 37.117</text>
<text text-anchor="start" x="313" y="-215.8" font-family="Helvetica,sans-Serif" font-size="14.00">samples = 10000</text>
<text text-anchor="start" x="325" y="-200.8" font-family="Helvetica,sans-Serif" font-size="14.00">value = 5.119</text>
</g>
<!-- 1 -->
<g id="node2" class="node">
<title>1</title>
<path fill="#fffdfc" stroke="black" d="M354,-157C354,-157 204,-157 204,-157 198,-157 192,-151 192,-145 192,-145 192,-101 192,-101 192,-95 198,-89 204,-89 204,-89 354,-89 354,-89 360,-89 366,-95 366,-101 366,-101 366,-145 366,-145 366,-151 360,-157 354,-157"/>
<text text-anchor="start" x="215" y="-141.8" font-family="Helvetica,sans-Serif" font-size="14.00">Supplement ≤ 0.5</text>
<text text-anchor="start" x="200" y="-126.8" font-family="Helvetica,sans-Serif" font-size="14.00">squared_error = 1.063</text>
<text text-anchor="start" x="221.5" y="-111.8" font-family="Helvetica,sans-Serif" font-size="14.00">samples = 5007</text>
<text text-anchor="start" x="229" y="-96.8" font-family="Helvetica,sans-Serif" font-size="14.00">value = 0.262</text>
</g>
<!-- 0&#45;&gt;1 -->
<g id="edge1" class="edge">
<title>0&#45;&gt;1</title>
<path fill="none" stroke="black" d="M343.83,-192.88C335.36,-183.89 326.1,-174.04 317.29,-164.68"/>
<polygon fill="black" stroke="black" points="319.74,-162.18 310.34,-157.3 314.65,-166.98 319.74,-162.18"/>
<text text-anchor="middle" x="309.58" y="-178.59" font-family="Helvetica,sans-Serif" font-size="14.00">True</text>
</g>
<!-- 4 -->
<g id="node5" class="node">
<title>4</title>
<path fill="#eeab7b" stroke="black" d="M546,-157C546,-157 396,-157 396,-157 390,-157 384,-151 384,-145 384,-145 384,-101 384,-101 384,-95 390,-89 396,-89 396,-89 546,-89 546,-89 552,-89 558,-95 558,-101 558,-101 558,-145 558,-145 558,-151 552,-157 546,-157"/>
<text text-anchor="start" x="407" y="-141.8" font-family="Helvetica,sans-Serif" font-size="14.00">Supplement ≤ 0.5</text>
<text text-anchor="start" x="392" y="-126.8" font-family="Helvetica,sans-Serif" font-size="14.00">squared_error = 25.89</text>
<text text-anchor="start" x="413.5" y="-111.8" font-family="Helvetica,sans-Serif" font-size="14.00">samples = 4993</text>
<text text-anchor="start" x="425.5" y="-96.8" font-family="Helvetica,sans-Serif" font-size="14.00">value = 9.99</text>
</g>
<!-- 0&#45;&gt;4 -->
<g id="edge4" class="edge">
<title>0&#45;&gt;4</title>
<path fill="none" stroke="black" d="M406.17,-192.88C414.64,-183.89 423.9,-174.04 432.71,-164.68"/>
<polygon fill="black" stroke="black" points="435.35,-166.98 439.66,-157.3 430.26,-162.18 435.35,-166.98"/>
<text text-anchor="middle" x="440.42" y="-178.59" font-family="Helvetica,sans-Serif" font-size="14.00">False</text>
</g>
<!-- 2 -->
<g id="node3" class="node">
<title>2</title>
<path fill="#ffffff" stroke="black" d="M162,-53C162,-53 12,-53 12,-53 6,-53 0,-47 0,-41 0,-41 0,-12 0,-12 0,-6 6,0 12,0 12,0 162,0 162,0 168,0 174,-6 174,-12 174,-12 174,-41 174,-41 174,-47 168,-53 162,-53"/>
<text text-anchor="start" x="8" y="-37.8" font-family="Helvetica,sans-Serif" font-size="14.00">squared_error = 0.976</text>
<text text-anchor="start" x="29.5" y="-22.8" font-family="Helvetica,sans-Serif" font-size="14.00">samples = 2479</text>
<text text-anchor="start" x="37" y="-7.8" font-family="Helvetica,sans-Serif" font-size="14.00">value = 0.022</text>
</g>
<!-- 1&#45;&gt;2 -->
<g id="edge2" class="edge">
<title>1&#45;&gt;2</title>
<path fill="none" stroke="black" d="M211.85,-88.95C191.12,-78.75 168.42,-67.57 148.13,-57.59"/>
<polygon fill="black" stroke="black" points="149.5,-54.36 138.99,-53.09 146.41,-60.64 149.5,-54.36"/>
</g>
<!-- 3 -->
<g id="node4" class="node">
<title>3</title>
<path fill="#fefbf9" stroke="black" d="M354,-53C354,-53 204,-53 204,-53 198,-53 192,-47 192,-41 192,-41 192,-12 192,-12 192,-6 198,0 204,0 204,0 354,0 354,0 360,0 366,-6 366,-12 366,-12 366,-41 366,-41 366,-47 360,-53 354,-53"/>
<text text-anchor="start" x="200" y="-37.8" font-family="Helvetica,sans-Serif" font-size="14.00">squared_error = 1.036</text>
<text text-anchor="start" x="221.5" y="-22.8" font-family="Helvetica,sans-Serif" font-size="14.00">samples = 2528</text>
<text text-anchor="start" x="229" y="-7.8" font-family="Helvetica,sans-Serif" font-size="14.00">value = 0.498</text>
</g>
<!-- 1&#45;&gt;3 -->
<g id="edge3" class="edge">
<title>1&#45;&gt;3</title>
<path fill="none" stroke="black" d="M279,-88.95C279,-80.72 279,-71.85 279,-63.48"/>
<polygon fill="black" stroke="black" points="282.5,-63.24 279,-53.24 275.5,-63.24 282.5,-63.24"/>
</g>
<!-- 5 -->
<g id="node6" class="node">
<title>5</title>
<path fill="#f6d5bd" stroke="black" d="M546,-53C546,-53 396,-53 396,-53 390,-53 384,-47 384,-41 384,-41 384,-12 384,-12 384,-6 390,0 396,0 396,0 546,0 546,0 552,0 558,-6 558,-12 558,-12 558,-41 558,-41 558,-47 552,-53 546,-53"/>
<text text-anchor="start" x="392" y="-37.8" font-family="Helvetica,sans-Serif" font-size="14.00">squared_error = 1.035</text>
<text text-anchor="start" x="413.5" y="-22.8" font-family="Helvetica,sans-Serif" font-size="14.00">samples = 2491</text>
<text text-anchor="start" x="421" y="-7.8" font-family="Helvetica,sans-Serif" font-size="14.00">value = 4.991</text>
</g>
<!-- 4&#45;&gt;5 -->
<g id="edge5" class="edge">
<title>4&#45;&gt;5</title>
<path fill="none" stroke="black" d="M471,-88.95C471,-80.72 471,-71.85 471,-63.48"/>
<polygon fill="black" stroke="black" points="474.5,-63.24 471,-53.24 467.5,-63.24 474.5,-63.24"/>
</g>
<!-- 6 -->
<g id="node7" class="node">
<title>6</title>
<path fill="#e58139" stroke="black" d="M738,-53C738,-53 588,-53 588,-53 582,-53 576,-47 576,-41 576,-41 576,-12 576,-12 576,-6 582,0 588,0 588,0 738,0 738,0 744,0 750,-6 750,-12 750,-12 750,-41 750,-41 750,-47 744,-53 738,-53"/>
<text text-anchor="start" x="584" y="-37.8" font-family="Helvetica,sans-Serif" font-size="14.00">squared_error = 0.995</text>
<text text-anchor="start" x="605.5" y="-22.8" font-family="Helvetica,sans-Serif" font-size="14.00">samples = 2502</text>
<text text-anchor="start" x="608.5" y="-7.8" font-family="Helvetica,sans-Serif" font-size="14.00">value = 14.966</text>
</g>
<!-- 4&#45;&gt;6 -->
<g id="edge6" class="edge">
<title>4&#45;&gt;6</title>
<path fill="none" stroke="black" d="M538.15,-88.95C558.88,-78.75 581.58,-67.57 601.87,-57.59"/>
<polygon fill="black" stroke="black" points="603.59,-60.64 611.01,-53.09 600.5,-54.36 603.59,-60.64"/>
</g>
</g>
</svg>
